<?xml version="1.0" encoding="UTF-8" standalone="no"?>
<svg width="54px" height="54px" viewBox="0 0 54 54" version="1.1" xmlns="http://www.w3.org/2000/svg" xmlns:xlink="http://www.w3.org/1999/xlink">
    <!-- Generator: Sketch 39.1 (31720) - http://www.bohemiancoding.com/sketch -->
    <title>Facebook</title>
    <desc>Created with Sketch.</desc>
    <defs></defs>
    <g id="artboard-1" stroke="none" stroke-width="1" fill="none" fill-rule="evenodd">
        <g id="Group-3-Copy" transform="translate(-992.000000, -183.000000)" fill="#000000">
            <path d="M1046,210 C1046,224.9115 1033.9115,237 1019,237 C1004.0885,237 992,224.9115 992,210 C992,195.0885 1004.0885,183 1019,183 C1033.9115,183 1046,195.0885 1046,210 L1046,210 Z M1020.6245,210 L1023.536,210 L1023.923,206.3625 L1020.6245,206.3625 L1020.629,204.543 C1020.629,203.595 1020.719,203.0865 1022.0825,203.0865 L1023.902,203.0865 L1023.902,199.449 L1020.989,199.449 C1017.491,199.449 1016.258,201.2145 1016.258,204.18 L1016.258,206.3625 L1014.077,206.3625 L1014.077,210 L1016.258,210 L1016.258,220.551 L1020.6245,220.551 L1020.6245,210 L1020.6245,210 Z" id="Facebook"></path>
        </g>
    </g>
</svg>