<?xml version="1.0" encoding="UTF-8" standalone="no"?>
<svg width="54px" height="54px" viewBox="0 0 54 54" version="1.1" xmlns="http://www.w3.org/2000/svg" xmlns:xlink="http://www.w3.org/1999/xlink">
    <!-- Generator: Sketch 39.1 (31720) - http://www.bohemiancoding.com/sketch -->
    <title>Linkedin</title>
    <desc>Created with Sketch.</desc>
    <defs></defs>
    <g id="artboard-1" stroke="none" stroke-width="1" fill="none" fill-rule="evenodd">
        <g id="Group-3-Copy" transform="translate(-992.000000, -311.000000)" fill="#000000">
            <path d="M1020.2615,334.352 C1020.2705,334.337 1020.2825,334.322 1020.2915,334.307 L1020.2915,334.352 L1020.2615,334.352 L1020.2615,334.352 Z M1046,338 C1046,352.9115 1033.9115,365 1019,365 C1004.0885,365 992,352.9115 992,338 C992,323.0885 1004.0885,311 1019,311 C1033.9115,311 1046,323.0885 1046,338 L1046,338 Z M1008.506,346.226 L1013.12,346.226 L1013.12,332.339 L1008.506,332.339 L1008.506,346.226 Z M1013.4245,328.043 C1013.396,326.681 1012.424,325.643 1010.8445,325.643 C1009.265,325.643 1008.233,326.681 1008.233,328.043 C1008.233,329.3765 1009.2335,330.443 1010.783,330.443 L1010.813,330.443 C1012.424,330.443 1013.4245,329.3765 1013.4245,328.043 L1013.4245,328.043 Z M1029.767,338.264 C1029.767,333.9965 1027.4885,332.0135 1024.451,332.0135 C1021.9985,332.0135 1020.905,333.3605 1020.2915,334.307 L1020.2915,332.339 L1015.676,332.339 C1015.7375,333.641 1015.676,346.226 1015.676,346.226 L1020.2915,346.226 L1020.2915,338.471 C1020.2915,338.0555 1020.32,337.64 1020.4445,337.3445 C1020.7775,336.515 1021.5365,335.6555 1022.8115,335.6555 C1024.4825,335.6555 1025.15,336.929 1025.15,338.7965 L1025.15,346.226 L1029.767,346.226 L1029.767,338.264 L1029.767,338.264 Z" id="Linkedin"></path>
        </g>
    </g>
</svg>