<?xml version="1.0" encoding="UTF-8" standalone="no"?>
<svg width="54px" height="54px" viewBox="0 0 54 54" version="1.1" xmlns="http://www.w3.org/2000/svg" xmlns:xlink="http://www.w3.org/1999/xlink">
    <!-- Generator: Sketch 39.1 (31720) - http://www.bohemiancoding.com/sketch -->
    <title>Twitter</title>
    <desc>Created with Sketch.</desc>
    <defs></defs>
    <g id="artboard-1" stroke="none" stroke-width="1" fill="none" fill-rule="evenodd">
        <g id="Group-3-Copy" transform="translate(-992.000000, -247.000000)" fill="#000000">
            <path d="M1046,274 C1046,288.9115 1033.9115,301 1019,301 C1004.0885,301 992,288.9115 992,274 C992,259.0885 1004.0885,247 1019,247 C1033.9115,247 1046,259.0885 1046,274 L1046,274 Z M1031.453,266.818 C1030.601,267.196 1029.686,267.451 1028.7245,267.5665 C1029.7055,266.9785 1030.46,266.047 1030.814,264.937 C1029.896,265.4815 1028.879,265.8775 1027.7975,266.0905 C1026.9305,265.1665 1025.696,264.5905 1024.3295,264.5905 C1021.7045,264.5905 1019.5775,266.7175 1019.5775,269.341 C1019.5775,269.713 1019.6195,270.076 1019.7005,270.424 C1015.7525,270.226 1012.2515,268.3345 1009.9085,265.4605 C1009.5005,266.161 1009.265,266.977 1009.265,267.8485 C1009.265,269.497 1010.1035,270.9505 1011.3785,271.8025 C1010.6,271.7785 1009.868,271.564 1009.2275,271.2085 C1009.226,271.228 1009.226,271.2475 1009.226,271.2685 C1009.226,273.5695 1010.864,275.491 1013.0375,275.926 C1012.6385,276.0355 1012.2185,276.094 1011.7865,276.094 C1011.479,276.094 1011.182,276.064 1010.8925,276.0085 C1011.497,277.8955 1013.2505,279.2695 1015.3295,279.307 C1013.7035,280.582 1011.656,281.341 1009.43,281.341 C1009.046,281.341 1008.668,281.3185 1008.296,281.275 C1010.399,282.622 1012.8965,283.4095 1015.58,283.4095 C1024.3175,283.4095 1029.0965,276.1705 1029.0965,269.8915 C1029.0965,269.686 1029.092,269.4805 1029.083,269.2765 C1030.0115,268.6075 1030.817,267.7705 1031.453,266.818 L1031.453,266.818 Z" id="Twitter"></path>
        </g>
    </g>
</svg>