<?xml version="1.0" encoding="UTF-8" standalone="no"?>
<svg width="823px" height="344px" viewBox="0 0 823 344" version="1.1" xmlns="http://www.w3.org/2000/svg" xmlns:xlink="http://www.w3.org/1999/xlink">
    <!-- Generator: Sketch 39.1 (31720) - http://www.bohemiancoding.com/sketch -->
    <title>Group 4</title>
    <desc>Created with Sketch.</desc>
    <defs>
        <linearGradient x1="50%" y1="0%" x2="50%" y2="100%" id="linearGradient-1">
            <stop stop-color="#000000" stop-opacity="0" offset="0%"></stop>
            <stop stop-color="#000000" offset="100%"></stop>
        </linearGradient>
        <path d="M21.3330656,49.9462193 L53.5956825,34.6677072 L309.84736,0 L321.836195,21.5609156 L156.112377,46.8804441 C138.044152,49.3795436 122.194359,50.8005587 108.665238,51.1451995 L100.786647,51.4117441 L97.0158223,53.7610842 C107.582917,55.9709319 118.145668,59.6675858 128.837894,64.8598715 L157.944647,78.5611412 L221.753984,57.5221923 C257.821945,45.0820941 286.047318,37.9200368 307.293379,36.0263213 L335.897055,53.2651725 L204.725799,99.5025512 L230.990726,110.792381 L186.455033,125.675207 L159.620323,114.331807 L127.91126,124.575161 C132.801363,130.059166 134.351126,134.569069 132.490099,138.100815 L92.2081991,148.331076 L0,109.224067 L35.1358864,96.1259687 C46.8250885,95.8006236 62.195731,97.9936437 81.3963668,102.715247 L111.606788,93.2878676 L21.3330656,49.9462193 Z M513.641561,97.6769814 C548.196622,111.147702 564.269493,124.244665 560.855362,137.012699 C557.031114,149.79583 530.908855,165.610174 480.757259,184.574231 C428.406004,203.70624 380.440563,214.76548 337.931744,217.61557 C295.216093,220.43807 255.691678,215.01906 219.72325,201.339409 C184.160932,187.62105 171.378856,174.008246 181.179603,160.550174 C191.189262,147.13647 224.36655,131.029285 279.25394,112.240395 C331.824136,93.5193789 375.25361,83.0549624 411.172525,80.7971959 C446.397503,78.5486762 480.099343,84.179883 513.641561,97.6769814 Z M309.535097,193.349184 C329.828765,191.544743 362.810913,182.542075 407.654737,166.41206 C450.986925,150.378389 476.804759,138.503947 486.294837,130.724189 C495.524722,122.958456 492.309598,116.076763 476.989127,110.063511 C461.85675,104.044821 445.419074,102.789613 427.311711,106.305478 C408.924331,109.827379 380.419006,118.78499 340.799674,133.218821 C299.819693,147.70972 272.646436,159.06087 260.056941,167.244603 C247.40805,175.445052 248.640535,182.486398 263.857239,188.351787 C276.740762,193.285565 291.994481,194.950689 309.535097,193.349184 Z M436.416259,222.360613 L459.117418,206.368466 L722.995822,169.899557 L751.293653,191.123525 L579.774179,218.011623 C561.635263,220.722048 545.327641,222.324882 530.907432,222.813613 L522.575006,223.16358 L520.053327,225.587297 C532.83387,227.713498 546.447771,231.32443 560.900191,236.41062 L598.854341,249.643572 L657.839404,227.791104 C691.36681,215.006139 719.336108,207.59219 742.531914,205.466127 L783,221.795306 L656.262199,269.349241 L686.86339,279.717963 L643.412695,295.317415 L613.15624,284.899008 L582.959793,295.717904 C589.127424,300.983853 591.545367,305.366218 590.239163,308.875047 L551.088406,320 L447.847086,283.14449 L478.177625,269.29787 C490.071768,268.771363 506.867496,270.706724 528.554994,275.075335 L556.244562,265.106337 L436.416259,222.360613 Z" id="path-2"></path>
    </defs>
    <g id="Page-1" stroke="none" stroke-width="1" fill="none" fill-rule="evenodd">
        <g id="Group-4" transform="translate(20.000000, 12.000000)">
            <g id="404">
                <use fill="#000000" fill-rule="evenodd" xlink:href="#path-2"></use>
                <use stroke="url(#linearGradient-1)" stroke-width="10.14" xlink:href="#path-2"></use>
            </g>
        </g>
    </g>
</svg>