<?xml version="1.0" standalone="no"?>
<!DOCTYPE svg PUBLIC "-//W3C//DTD SVG 20010904//EN"
 "http://www.w3.org/TR/2001/REC-SVG-20010904/DTD/svg10.dtd">
<svg version="1.0" xmlns="http://www.w3.org/2000/svg"
 width="984.000000pt" height="984.000000pt" viewBox="0 0 984.000000 984.000000"
 preserveAspectRatio="xMidYMid meet">
<metadata>
Created by potrace 1.11, written by Peter Selinger 2001-2013
</metadata>
<g transform="translate(0.000000,984.000000) scale(0.100000,-0.100000)"
fill="#000000" stroke="none">
<path d="M3904 9771 c-2 -2 -4 -21 -4 -41 l0 -38 -66 2 c-52 2 -67 -1 -74 -14
-6 -12 -5 -17 5 -17 7 0 11 7 8 16 -4 14 -4 14 6 1 9 -12 11 -13 11 -1 0 8 3
11 6 8 4 -4 1 -13 -6 -22 -8 -9 -8 -15 -2 -15 6 0 14 5 17 10 4 6 11 8 16 5 5
-4 9 -1 9 6 0 7 6 5 13 -5 11 -15 17 -17 33 -7 19 11 19 11 0 9 -10 -2 -21 4
-23 12 -4 13 -3 13 6 0 9 -13 11 -13 11 0 0 25 23 -7 25 -34 0 -18 -4 -23 -17
-21 -10 2 -20 -1 -24 -6 -3 -6 -12 -5 -21 3 -19 15 -23 15 -34 -4 -6 -9 -9 -9
-9 -1 0 7 -9 10 -20 8 -12 -2 -23 2 -26 10 -3 7 -12 11 -20 8 -12 -4 -12 -8 3
-20 10 -8 12 -11 4 -7 -23 12 -71 12 -71 0 0 -6 -5 -4 -10 4 -5 8 -10 11 -10
6 0 -5 -7 -3 -15 4 -12 10 -15 9 -15 -6 0 -17 -1 -17 -15 2 -10 13 -14 14 -13
4 2 -12 -11 -15 -67 -16 -99 -2 -96 -1 -91 -27 6 -34 -5 -46 -46 -48 -34 -3
-35 -5 -34 -38 l1 -36 -55 0 c-30 0 -61 -4 -67 -8 -13 -8 -17 -2 -14 17 1 5
-4 5 -11 0 -7 -6 -31 -12 -53 -13 -21 -2 -48 -10 -60 -18 -20 -15 -19 -15 4
-8 18 6 22 4 15 -6 -5 -8 -7 -21 -6 -31 4 -24 -11 -29 -42 -13 -14 8 -24 10
-21 5 7 -11 3 -11 -60 -14 -25 0 -39 -5 -38 -13 2 -7 -4 -10 -13 -6 -13 5 -13
7 -2 14 10 7 9 9 -4 9 -9 0 -22 -8 -28 -17 -11 -17 -11 -17 -6 0 3 9 1 17 -4
17 -6 0 -10 -3 -11 -7 0 -5 -2 -16 -4 -25 -2 -10 2 -18 8 -18 8 0 8 -3 2 -8
-18 -13 -18 -21 -13 -193 l2 -65 36 -2 c26 -1 30 1 16 7 -20 7 -19 8 0 13 23
6 23 4 27 -64 2 -40 4 -45 19 -37 22 12 31 11 23 -1 -3 -6 1 -7 10 -4 13 5 13
9 3 22 -10 12 -10 14 0 8 6 -4 12 -3 12 2 0 18 -14 21 -31 6 -14 -12 -18 -13
-25 -2 -4 7 -4 10 0 6 11 -9 46 23 39 35 -3 6 -1 7 6 3 6 -4 9 -11 6 -16 -3
-5 -1 -11 3 -14 10 -6 13 -50 13 -176 1 -124 2 -118 -27 -114 -43 4 -53 -4
-49 -42 3 -38 7 -37 -102 -36 -35 1 -64 -3 -64 -8 -1 -6 -2 -16 -3 -22 -1 -7
2 -22 7 -33 5 -11 6 -17 2 -13 -4 4 -18 3 -30 -2 -16 -6 -25 -5 -27 2 -3 7
-10 5 -20 -5 -8 -9 -19 -13 -24 -9 -5 4 -3 0 3 -8 14 -20 11 -62 -4 -68 -14
-4 -18 33 -5 41 4 2 1 2 -7 0 -7 -2 -21 2 -30 9 -13 10 -12 8 2 -8 21 -26 22
-35 0 -27 -9 4 -14 2 -10 -3 3 -6 -14 -10 -41 -9 l-47 0 1 -37 c0 -38 0 -38
-41 -38 -31 0 -47 -6 -61 -22 -15 -19 -16 -20 -1 -9 15 12 17 11 17 -12 0 -31
-25 -47 -60 -37 -18 5 -32 1 -50 -14 -21 -18 -23 -19 -10 -2 13 18 13 19 -1
14 -9 -4 -21 -2 -26 3 -6 6 -9 -6 -10 -31 -1 -49 -2 -51 -42 -52 -30 -1 -50
-26 -37 -47 5 -8 -21 -71 -29 -71 -1 0 -2 8 -1 17 1 22 -40 27 -48 6 -8 -19 2
-35 16 -27 7 4 8 2 4 -5 -4 -6 -12 -9 -17 -5 -6 3 -9 -2 -7 -11 3 -19 -28 -30
-38 -14 -3 5 -14 5 -26 -2 -14 -7 -19 -18 -16 -34 7 -34 -6 -48 -40 -47 -17 0
-36 -6 -43 -14 -6 -8 -7 -14 -2 -14 5 0 8 -13 5 -29 -3 -26 -7 -28 -37 -26
-33 2 -57 -19 -32 -28 8 -3 5 -7 -6 -12 -17 -7 -17 -8 0 -22 10 -8 12 -12 6
-8 -7 3 -13 2 -13 -3 0 -5 -18 -8 -41 -6 -37 3 -39 1 -27 -13 9 -12 9 -15 0
-9 -7 4 -12 1 -12 -9 0 -10 5 -13 13 -9 9 6 9 5 0 -7 -6 -8 -12 -18 -12 -24
-1 -5 -10 -11 -21 -11 -11 -1 -29 -2 -40 -3 -16 -1 -19 -7 -17 -38 2 -33 -1
-38 -20 -37 -12 0 -20 -3 -17 -7 2 -4 0 -10 -6 -14 -5 -3 -10 2 -10 12 -1 16
-2 16 -13 -2 -17 -29 -18 -75 0 -68 9 4 11 0 7 -11 -3 -9 -9 -14 -13 -11 -4 2
-8 -3 -8 -11 0 -10 4 -11 11 -4 7 7 14 3 24 -12 7 -13 11 -15 8 -6 -3 12 -1
15 10 11 17 -6 19 8 2 25 -9 9 -9 12 2 12 9 0 7 5 -6 14 -16 12 -17 17 -6 28
11 11 12 10 7 -4 -4 -11 -2 -18 5 -18 6 0 8 5 5 10 -3 6 -2 10 4 10 5 0 9 -12
7 -27 -1 -16 1 -35 5 -44 10 -19 -25 -57 -35 -40 -4 6 -12 9 -19 7 -7 -1 -9
-1 -4 1 4 3 7 10 7 16 0 7 -6 6 -14 -3 -9 -9 -16 -40 -18 -82 -1 -36 -6 -64
-10 -62 -3 2 -9 0 -12 -5 -4 -5 -1 -11 6 -14 7 -2 2 -2 -10 0 -13 2 -21 0 -18
-5 3 -5 -24 -9 -59 -9 -40 -1 -63 3 -59 9 3 5 7 23 8 39 2 28 0 30 -30 26 -44
-6 -57 4 -51 41 6 34 -2 40 -50 37 -32 -2 -54 19 -30 29 9 3 8 5 -1 5 -9 1
-10 6 -3 19 15 28 -24 49 -55 30 -17 -11 -25 3 -11 20 7 9 7 13 1 9 -8 -4 -11
19 -10 81 1 59 5 87 13 87 6 0 15 3 19 7 3 4 -3 6 -14 3 -19 -3 -20 1 -19 58
0 43 -3 61 -11 60 -9 -2 -9 3 0 21 16 37 5 55 -36 53 -19 -1 -32 -5 -30 -9 3
-4 0 -17 -7 -29 -6 -12 -7 -19 -1 -15 5 3 13 -2 16 -11 4 -10 4 -15 1 -11 -3
3 -21 2 -40 -2 -19 -4 -38 -3 -43 2 -6 6 -9 -1 -10 -19 0 -61 -2 -74 -11 -68
-5 3 -12 1 -16 -5 -4 -6 -12 -7 -18 -3 -27 17 -34 10 -32 -33 2 -24 -2 -44 -7
-44 -6 0 -7 -7 -4 -16 4 -12 2 -15 -9 -10 -8 3 -15 1 -15 -4 0 -6 7 -10 15
-10 9 0 15 -9 14 -22 0 -13 -3 -17 -6 -10 -2 6 -9 12 -15 12 -6 0 -8 -7 -5
-14 4 -11 1 -13 -11 -9 -9 3 -14 3 -10 -2 4 -4 3 -16 -2 -26 -8 -14 -6 -20 7
-28 16 -9 16 -10 -2 -8 -15 1 -21 8 -21 24 0 13 4 23 8 23 4 0 7 3 6 8 0 4 2
15 6 24 4 10 6 23 3 30 -3 7 -6 3 -6 -9 -1 -13 -6 -23 -12 -23 -5 0 -7 6 -3
13 4 6 3 8 -2 4 -4 -4 -9 -22 -10 -40 -1 -18 -2 -39 -3 -47 -1 -10 -12 -15
-38 -15 -37 0 -38 -1 -39 -40 -1 -24 -6 -39 -13 -38 -6 2 -11 -4 -11 -12 0 -8
-4 -15 -10 -15 -5 0 -8 6 -6 13 1 6 1 8 -2 4 -2 -4 -10 -3 -18 4 -8 6 -14 8
-15 3 -3 -38 0 -94 6 -105 5 -7 4 -10 -3 -5 -7 4 -10 -10 -8 -44 1 -28 0 -53
-3 -55 -9 -10 -8 -50 1 -69 8 -14 7 -17 -3 -11 -8 6 -11 4 -7 -7 5 -12 0 -15
-23 -13 -16 1 -32 -2 -35 -7 -3 -5 -13 -6 -22 -4 -11 4 -21 -3 -29 -20 -10
-21 -9 -25 1 -21 7 3 19 1 27 -4 12 -7 12 -9 0 -9 -10 0 -11 -3 -2 -13 8 -10
7 -14 -4 -14 -7 0 -13 5 -12 10 1 5 -4 12 -12 15 -8 3 -11 0 -7 -6 4 -7 -1
-10 -13 -7 -16 3 -19 -2 -19 -33 0 -58 -1 -63 -14 -61 -36 4 -57 -3 -63 -22
-4 -12 -2 -26 5 -33 10 -8 11 -8 5 4 -8 13 -7 13 9 1 15 -12 19 -12 34 3 16
17 16 18 -3 12 -25 -7 -55 8 -32 17 8 3 24 3 36 0 16 -4 20 -11 16 -30 -4 -26
-15 -44 -15 -26 0 5 -10 9 -22 7 -13 -1 -28 -3 -34 -3 -12 -1 -15 -31 -3 -31
5 0 4 -11 -1 -25 -6 -17 -6 -25 1 -25 6 0 7 -5 4 -10 -5 -8 -12 -7 -23 2 -16
12 -16 11 -1 -7 8 -11 15 -27 14 -35 0 -8 4 -18 10 -22 6 -5 3 -8 -7 -8 -25 0
-33 4 -30 13 1 4 -9 0 -22 -8 -23 -15 -24 -22 -26 -128 -1 -62 -2 -131 -3
-154 0 -23 -4 -40 -8 -37 -4 2 -11 0 -14 -6 -5 -8 -11 -7 -21 1 -15 12 -9 33
7 24 5 -4 9 -1 9 5 0 6 4 9 8 6 4 -2 8 4 9 14 1 11 -2 22 -8 25 -5 3 -6 0 -3
-8 3 -8 -1 -18 -8 -23 -7 -4 -10 -4 -6 1 9 10 -10 35 -26 35 -6 0 -3 -5 6 -11
9 -5 15 -16 12 -24 -4 -8 -10 -12 -15 -9 -5 3 -6 10 -3 16 4 7 2 8 -5 4 -6 -4
-8 -13 -4 -19 17 -27 10 -44 -18 -42 -15 1 -27 -3 -26 -8 1 -5 -4 -12 -12 -15
-8 -2 -11 0 -8 5 3 5 0 10 -6 10 -21 0 -17 -36 5 -48 16 -8 19 -8 13 1 -5 8
-3 11 4 9 19 -7 9 -24 -11 -22 -10 2 -18 -2 -18 -8 0 -5 -5 -7 -12 -3 -7 5 -8
3 -4 -5 5 -7 7 -51 7 -99 -2 -116 -2 -111 0 -157 0 -22 0 -45 0 -50 -1 -6 -18
-10 -38 -10 l-38 0 -3 -1030 c-1 -566 0 -1037 3 -1045 5 -13 7 -13 15 0 7 11
10 12 10 2 0 -7 8 -12 17 -11 39 3 46 0 33 -16 -8 -10 -9 -15 -1 -15 7 0 8 -8
1 -25 -7 -17 -6 -25 1 -25 8 0 8 -4 0 -13 -8 -10 -7 -17 2 -27 10 -10 8 -12
-8 -6 -18 5 -18 5 -3 -7 12 -9 14 -18 7 -30 -7 -11 -6 -17 0 -17 7 0 7 -9 0
-27 -7 -20 -7 -29 1 -31 8 -3 8 -8 -1 -18 -6 -8 -8 -14 -3 -14 9 0 9 -82 0
-106 -3 -8 0 -14 6 -14 6 0 8 -11 5 -28 -7 -33 5 -57 24 -50 8 3 23 2 34 -2
18 -6 20 -16 20 -121 l0 -114 38 -3 c37 -3 37 -4 37 -48 0 -32 4 -44 15 -44 8
0 15 -5 15 -11 0 -6 -6 -9 -13 -6 -12 5 -16 -21 -9 -55 3 -10 47 -3 47 8 0 5
-3 8 -7 6 -5 -1 -8 4 -8 10 0 9 -3 8 -10 -2 -5 -8 -12 -11 -17 -7 -11 12 16
25 38 20 10 -3 19 -8 20 -12 9 -54 6 -81 -9 -81 -10 0 -3 -8 16 -16 17 -9 32
-21 32 -26 0 -6 -7 -5 -15 2 -14 12 -15 9 -10 -21 7 -40 6 -38 34 -44 12 -2
19 0 16 6 -4 5 -10 7 -15 4 -5 -3 -12 0 -16 6 -4 7 -3 9 3 6 6 -4 14 0 17 9 5
12 1 14 -15 9 -20 -7 -20 -6 -2 12 13 13 19 15 21 6 2 -7 7 -13 12 -13 5 0 7
7 4 15 -4 8 -2 15 2 15 8 0 13 -62 17 -242 1 -54 5 -68 17 -68 9 0 22 6 29 13
10 10 11 8 6 -8 -5 -15 -2 -14 10 5 9 14 14 17 11 8 -3 -10 -1 -20 5 -23 5 -4
6 -11 3 -17 -4 -7 -2 -8 5 -4 6 4 9 11 6 16 -3 4 3 7 12 6 9 -2 19 -8 21 -14
2 -7 8 -12 14 -12 6 0 7 8 4 18 -5 15 -4 15 8 -2 11 -13 12 -25 5 -42 -7 -21
-5 -26 14 -34 13 -5 16 -9 7 -9 -10 -1 -15 -10 -15 -27 2 -45 50 -54 50 -10 0
11 7 21 15 23 12 4 13 3 1 -5 -9 -7 -11 -16 -6 -28 5 -11 10 -32 12 -49 4 -41
11 -57 22 -51 5 4 12 0 14 -6 4 -10 6 -10 6 0 1 6 9 12 19 12 14 0 19 -8 20
-30 0 -20 -3 -28 -11 -24 -7 3 -4 -1 5 -9 10 -8 15 -16 12 -19 -3 -3 15 -5 40
-3 33 1 43 -1 37 -9 -6 -7 -6 -18 -1 -25 4 -8 6 -20 3 -27 -2 -6 0 -15 6 -19
6 -3 11 -13 11 -21 0 -9 -5 -12 -12 -8 -7 4 -8 3 -4 -5 10 -16 29 -2 23 18 -3
12 2 16 22 15 19 -1 26 -6 24 -20 -1 -10 4 -23 10 -27 7 -5 -3 -7 -23 -4 l-35
6 35 -16 c19 -9 49 -15 66 -14 29 1 32 -1 33 -31 2 -62 5 -77 15 -71 5 4 7 0
4 -9 -4 -8 0 -15 7 -15 10 0 11 5 4 18 -13 25 -12 26 19 25 24 -1 27 -5 27
-36 0 -43 9 -50 54 -44 19 2 32 1 28 -2 -4 -4 -1 -14 6 -22 7 -9 7 -13 1 -9
-6 4 -16 -5 -23 -21 -11 -25 -10 -26 4 -8 15 20 15 20 15 0 0 -16 7 -20 37
-19 38 0 38 0 41 -43 2 -33 7 -42 17 -38 8 3 19 -3 24 -12 9 -14 10 -14 11 -2
0 9 8 16 19 17 10 1 18 -4 18 -10 -2 -62 0 -65 54 -65 42 -1 52 3 60 21 9 22
9 22 5 -1 -4 -20 -1 -23 15 -19 10 3 21 2 23 -2 3 -4 20 -6 38 -5 36 3 53 -13
36 -33 -7 -9 -7 -13 2 -13 9 0 9 -4 -1 -17 -13 -15 -12 -16 9 -11 13 4 22 2
22 -5 0 -8 4 -7 9 2 5 7 11 9 14 4 4 -6 27 -9 52 -7 50 4 64 -10 59 -59 -3
-26 -1 -27 33 -23 32 4 35 3 29 -17 -5 -20 -4 -20 8 -4 17 22 27 22 19 0 -4
-9 -2 -14 3 -10 6 3 16 -3 22 -14 12 -19 12 -19 -11 -4 -23 15 -25 14 -30 -5
-4 -17 -2 -20 15 -14 15 4 18 3 13 -6 -6 -9 -2 -9 16 0 17 10 24 10 27 2 3 -9
9 -9 23 -2 10 6 19 7 19 2 0 -10 34 -8 64 4 14 5 17 4 11 -5 -6 -10 -3 -11 15
-1 14 7 25 8 29 3 8 -13 74 5 66 17 -3 6 1 7 10 4 14 -6 14 -8 -1 -19 -15 -10
-9 -12 35 -11 59 1 74 -10 45 -32 -17 -13 -17 -14 -1 -9 10 4 25 -1 36 -12 15
-15 36 -19 116 -20 74 -1 103 -6 121 -19 13 -9 24 -21 24 -26 0 -6 -5 -5 -12
2 -18 18 -25 15 -24 -10 1 -19 7 -23 41 -25 58 -4 64 -5 62 -16 -1 -5 4 -12
12 -15 8 -2 11 0 7 6 -9 16 14 26 27 13 9 -9 8 -11 -4 -6 -10 4 -16 0 -16 -10
0 -9 6 -14 13 -11 7 3 20 -7 29 -21 10 -14 12 -22 6 -19 -6 4 -11 2 -11 -3 0
-14 13 -14 28 1 9 9 12 9 12 -1 0 -7 5 -9 10 -6 8 5 8 11 1 19 -8 9 -7 13 4
13 7 0 14 -3 13 -6 0 -3 0 -28 1 -54 l1 -49 38 3 c21 2 42 1 47 -2 6 -3 36 -4
68 -4 31 0 57 -3 57 -8 0 -4 -4 -6 -8 -3 -4 2 -14 1 -21 -3 -9 -6 -4 -8 13 -8
16 0 26 5 26 14 0 8 5 11 11 8 6 -4 8 -14 5 -22 -9 -23 4 -36 22 -21 15 12 16
11 3 -5 -13 -17 -15 -17 -35 0 -12 9 -9 4 6 -12 23 -24 29 -26 42 -15 11 8 16
9 16 1 0 -7 10 -10 24 -7 27 5 65 -27 47 -39 -11 -6 -12 -5 -15 14 -2 19 -14
21 -18 3 -3 -10 0 -29 7 -42 l13 -23 6 21 c9 26 42 47 51 32 6 -9 -8 -14 -27
-11 -5 0 -8 -3 -8 -8 0 -13 27 -21 47 -14 11 4 14 3 9 -5 -5 -8 -2 -10 8 -6 9
3 13 11 9 17 -3 5 -1 7 5 3 5 -3 13 0 16 6 3 7 4 4 1 -8 -5 -19 -1 -20 45 -17
49 4 50 3 51 -24 1 -15 1 -34 0 -41 -2 -12 33 -16 117 -16 21 0 32 -4 32 -13
0 -8 4 -12 8 -9 5 3 9 -1 9 -9 0 -8 -4 -15 -9 -15 -16 0 -3 -25 17 -31 13 -4
30 3 50 20 19 17 23 18 12 5 -23 -28 -22 -37 4 -24 14 8 24 8 33 1 16 -14 29
-2 16 14 -7 8 -5 12 5 12 8 0 13 -3 10 -5 -3 -3 0 -11 6 -19 14 -16 43 -18 33
-1 -5 8 -3 8 7 2 8 -5 28 -10 44 -10 70 -3 71 -4 55 -14 -9 -6 -10 -10 -3 -10
7 0 16 8 22 18 8 14 9 11 7 -13 -5 -59 0 -61 144 -60 119 1 132 -1 141 -18 6
-10 17 -16 25 -13 8 3 14 -1 14 -9 0 -9 -8 -12 -27 -9 -20 3 -24 2 -13 -5 8
-5 17 -8 21 -5 4 2 9 0 11 -5 2 -6 105 -11 243 -13 l240 -3 2 -47 c1 -37 -1
-46 -15 -44 -9 2 -18 8 -20 14 -2 7 2 10 10 9 7 -2 10 -2 6 0 -5 3 -8 9 -8 14
0 6 4 8 8 5 9 -5 10 25 1 34 -2 3 -17 -4 -33 -16 -24 -17 -27 -24 -18 -41 8
-15 8 -23 -1 -32 -9 -10 -8 -11 8 -6 20 7 20 6 1 -9 -11 -9 -17 -18 -14 -21
11 -11 37 26 31 43 -6 14 -4 15 8 5 8 -6 19 -11 24 -10 6 1 10 -91 10 -260 1
-163 -3 -259 -9 -256 -5 3 -6 1 -2 -5 5 -8 37 -11 94 -9 l87 2 0 35 0 35 730
0 c402 0 735 3 740 6 6 4 18 5 27 4 11 -2 15 2 11 13 -5 11 -3 13 6 7 10 -6
11 -3 2 13 -15 29 -28 35 -35 17 -3 -8 -1 -14 3 -12 9 2 11 -3 11 -25 0 -9 -3
-9 -9 1 -8 12 -13 12 -24 3 -12 -10 -16 -9 -21 4 -3 9 -3 21 1 27 4 7 0 8 -11
4 -10 -4 -15 -3 -11 4 4 5 16 7 27 3 11 -3 18 -2 15 3 -3 5 9 8 26 8 18 -1 37
2 44 7 7 5 14 5 18 -2 4 -6 12 -7 24 0 12 6 22 5 29 -2 9 -9 12 -9 12 0 0 8 7
9 25 2 29 -11 42 6 39 53 -1 26 1 28 37 24 42 -4 57 13 44 53 -5 15 -2 20 14
20 10 0 27 3 37 7 11 4 15 3 10 -5 -3 -6 -2 -14 4 -17 6 -4 9 -1 8 6 -2 9 11
13 42 14 27 0 45 5 45 12 0 6 3 15 8 19 11 11 9 26 -3 19 -6 -4 -7 1 -3 11 5
14 8 12 20 -10 14 -27 32 -33 49 -16 5 5 15 6 24 0 8 -5 11 -12 7 -17 -5 -4
-12 -1 -16 6 -6 10 -10 10 -16 2 -4 -7 -16 -11 -27 -9 -12 2 -23 -2 -25 -9 -3
-8 6 -9 29 -4 18 4 44 6 57 5 33 -2 51 18 46 48 l-5 25 105 0 c58 0 108 2 111
6 3 3 12 3 18 1 15 -6 16 57 1 68 -5 4 2 8 17 8 15 0 30 5 33 10 8 13 -14 42
-26 34 -16 -9 -10 3 8 17 14 12 16 12 9 0 -6 -9 -5 -12 5 -9 8 3 13 9 12 14
-1 5 25 9 58 8 32 0 59 3 59 6 0 4 17 7 37 6 33 -1 37 2 36 22 -2 44 -2 45
-20 31 -10 -8 -14 -9 -10 -2 5 8 1 11 -13 8 -11 -2 -20 0 -20 5 0 5 10 9 23 8
12 0 63 0 114 1 l92 1 -1 35 c-1 20 4 41 10 47 8 8 12 9 12 1 0 -7 11 -8 33
-4 17 4 44 6 59 6 20 -1 24 2 17 11 -7 8 -2 11 16 11 20 0 23 -2 14 -13 -7 -9
-8 -14 -1 -14 6 0 13 6 16 13 5 9 7 9 12 0 3 -7 10 -13 15 -13 6 0 8 4 5 9 -4
5 -3 11 1 14 5 2 3 3 -3 1 -19 -4 -54 25 -48 41 4 8 10 13 14 10 5 -3 10 0 12
7 3 7 7 5 11 -6 4 -9 3 -15 -2 -11 -5 3 -13 0 -17 -6 -4 -8 -3 -9 4 -5 7 4 12
1 13 -6 0 -7 5 -3 11 10 6 12 15 22 20 22 5 0 4 -9 -2 -20 -7 -14 -7 -20 0
-20 5 0 10 7 10 15 0 8 4 15 10 15 5 0 7 18 5 40 -2 22 0 40 5 40 6 0 12 0 15
0 3 0 4 -3 3 -7 -2 -5 -7 -7 -12 -5 -5 2 -4 -3 2 -11 9 -10 9 -17 -1 -27 -9
-9 -9 -11 0 -6 6 3 16 -1 21 -10 9 -15 10 -15 17 5 6 21 7 22 22 4 8 -10 11
-12 7 -4 -11 22 -13 61 -3 61 6 0 8 4 4 9 -3 5 5 17 17 26 l23 17 -25 -8 c-23
-6 -24 -6 -10 11 9 11 10 16 3 11 -7 -4 -13 -2 -13 3 0 6 3 11 8 12 4 0 19 2
35 4 19 3 25 0 20 -8 -4 -8 -2 -8 9 1 10 8 15 24 12 46 -1 21 2 36 10 39 7 3
12 -4 12 -18 0 -13 -4 -21 -9 -18 -5 3 -4 -4 2 -14 14 -27 57 -22 85 8 21 23
21 23 0 6 -11 -9 -24 -14 -27 -10 -4 3 -7 1 -7 -6 0 -7 -5 -9 -11 -5 -8 4 -4
11 11 19 19 10 20 13 6 18 -11 4 -21 -3 -31 -21 l-15 -27 4 27 c7 41 15 51 32
37 11 -9 14 -9 14 1 0 9 4 9 17 -1 15 -12 16 -12 11 2 -5 14 -3 15 17 5 17 -8
21 -14 13 -23 -6 -7 -7 -13 -3 -13 5 0 0 -10 -11 -22 l-19 -23 22 19 c12 10
22 21 21 25 0 3 1 8 2 11 6 17 11 49 11 75 0 27 3 30 27 29 42 -1 62 7 60 25
-3 37 3 75 10 66 4 -5 21 -11 38 -11 31 -2 32 -1 29 37 -2 22 1 40 6 40 19 3
50 7 62 8 9 1 12 12 9 37 -5 42 11 58 42 42 15 -8 21 -8 24 1 2 6 7 9 11 7 4
-3 8 7 8 22 1 52 3 63 13 57 6 -4 8 -10 5 -15 -3 -5 0 -12 7 -16 7 -4 10 -4 6
1 -12 12 13 37 26 26 6 -5 20 -5 31 0 17 6 17 8 3 8 -21 1 -23 21 -5 40 10 11
9 12 -2 6 -9 -5 -12 -3 -9 6 3 8 18 14 39 13 40 0 47 8 43 46 -3 22 1 30 16
35 11 3 24 4 29 1 29 -18 50 24 27 53 -9 12 -7 13 8 8 16 -6 17 -5 7 7 -11 13
-9 15 11 14 53 -2 60 1 58 30 -1 15 -2 34 -1 42 1 13 3 13 10 0 6 -8 7 -18 4
-24 -3 -5 -1 -6 6 -2 6 4 9 12 6 17 -6 9 -2 11 37 13 20 1 23 7 23 41 0 40 0
40 38 39 39 0 38 -2 39 68 0 27 4 35 14 31 8 -3 11 -10 7 -17 -5 -8 -3 -8 8 0
8 6 21 10 29 9 10 -2 16 7 18 29 4 58 6 66 17 66 5 0 3 5 -5 10 -12 8 -12 10
-1 10 11 0 11 3 1 15 -7 8 -11 16 -9 16 2 1 24 3 49 5 108 10 105 9 105 34 0
14 -7 24 -17 26 -12 1 -15 -3 -10 -14 5 -15 4 -15 -11 -3 -9 7 -14 18 -10 24
3 6 1 7 -6 3 -6 -4 -8 -13 -4 -19 12 -20 12 -37 -1 -37 -7 0 -11 12 -10 31 3
38 8 43 31 31 33 -18 43 0 45 87 2 81 2 82 27 80 48 -2 57 1 57 21 0 11 -4 20
-9 20 -5 0 -3 8 4 17 12 14 12 16 0 8 -10 -6 -12 -4 -6 6 5 7 9 37 10 66 2 59
9 73 28 53 10 -10 9 -11 -2 -5 -9 5 -12 4 -7 -3 3 -5 1 -12 -6 -14 -7 -3 -5
-7 6 -11 10 -4 15 -3 11 3 -4 6 4 9 17 7 20 -2 23 3 25 32 1 24 -1 30 -8 20
-7 -11 -9 -11 -9 -1 0 8 9 16 20 19 16 4 18 8 9 19 -7 8 -9 17 -5 21 3 3 6 1
6 -5 0 -10 30 -9 48 2 5 3 9 -1 9 -8 0 -7 -10 -12 -23 -10 -16 1 -21 -2 -17
-13 4 -9 9 -11 16 -4 5 5 16 7 25 4 10 -4 13 -1 10 8 -3 8 -1 22 3 31 6 10 5
19 -1 23 -7 4 -6 13 1 27 9 16 8 19 -2 13 -8 -6 -10 -4 -3 6 5 8 7 22 6 32 -3
18 4 20 50 17 22 -1 27 2 22 14 -3 9 -11 16 -17 16 -6 0 -7 3 -4 6 4 4 13 2
20 -4 10 -9 14 -8 14 3 0 8 -3 16 -6 16 -32 7 -53 4 -61 -10 -5 -9 -10 -11
-10 -5 0 6 7 17 15 24 8 7 15 9 15 6 0 -4 10 -1 23 6 12 7 29 11 37 10 13 -3
13 -2 0 7 -11 8 -15 30 -15 81 -1 61 2 71 15 67 9 -2 17 1 17 8 0 7 -8 12 -17
10 -12 -2 -16 4 -15 25 0 23 2 26 14 17 12 -10 14 -9 8 5 -4 12 -2 15 8 11 8
-3 12 -9 9 -14 -3 -5 3 -9 13 -9 14 0 15 -2 4 -9 -8 -5 -9 -11 -3 -15 17 -10
24 12 11 35 -8 15 -8 19 0 15 10 -7 15 43 13 130 -1 29 1 31 36 30 30 -1 37 3
38 19 1 11 3 22 4 25 5 16 4 80 -2 80 -4 0 -3 11 2 24 5 13 6 28 2 32 -4 4 5
0 21 -9 25 -16 32 -15 28 7 -1 5 4 4 12 -2 11 -9 14 -8 14 3 0 20 -27 28 -33
10 -5 -12 -8 -12 -22 2 -21 21 -22 34 -2 51 13 12 12 13 -5 8 -20 -6 -20 -6
-1 9 17 13 16 19 -4 17 -14 -1 -7 40 7 45 17 7 46 -24 38 -38 -3 -4 0 -11 5
-14 8 -5 6 -13 -5 -25 -14 -15 -14 -18 0 -30 18 -15 17 -18 19 48 2 30 -1 47
-6 40 -6 -11 -8 -11 -8 0 0 7 6 15 13 17 9 4 12 44 11 158 0 83 3 157 7 162 5
6 7 34 7 63 -1 28 1 54 4 58 4 3 4 16 0 28 -4 11 -6 35 -5 51 3 34 3 44 1 155
-1 44 1 83 5 86 3 3 3 16 -1 28 -4 11 -6 35 -5 51 3 34 3 26 2 190 0 66 0 125
1 130 1 6 1 15 0 20 -6 24 -4 305 1 305 4 0 3 16 -1 35 -5 21 -4 38 2 41 5 3
5 11 1 17 -5 7 -8 23 -6 37 3 40 3 87 0 223 -1 70 1 127 5 127 4 0 5 6 2 14
-9 22 -10 137 -2 142 5 3 6 10 2 15 -7 11 -14 196 -17 436 -1 90 -5 163 -9
163 -3 0 -5 17 -3 38 3 30 2 33 -5 15 -5 -13 -12 -23 -16 -23 -3 0 -4 10 -1
23 6 21 6 21 -8 3 -14 -18 -20 -15 -15 9 1 6 -2 6 -6 2 -4 -4 -9 -15 -10 -23
-1 -9 0 -13 4 -10 3 4 12 -4 20 -16 7 -13 11 -15 8 -6 -3 11 0 15 8 12 25 -9
13 -33 -16 -32 -25 1 -65 28 -41 28 11 0 11 38 1 55 -3 6 -4 18 -3 27 2 11 -2
15 -11 11 -10 -4 -12 0 -8 11 3 9 11 13 17 9 6 -3 7 -1 3 5 -5 9 -13 9 -29 0
-12 -6 -24 -10 -25 -9 -2 2 -7 -1 -10 -5 -4 -4 -1 -4 6 0 6 4 12 3 12 -3 0 -5
-4 -11 -9 -13 -5 -1 -2 -10 7 -18 14 -13 15 -12 9 3 -7 19 1 21 23 7 13 -9 13
-10 0 -10 -13 0 -13 -2 0 -11 13 -9 13 -10 -1 -6 -9 3 -21 1 -27 -5 -14 -14
-26 9 -28 52 0 19 -3 88 -5 153 -3 94 -7 116 -18 112 -7 -3 -19 -1 -26 5 -10
8 -15 8 -21 -1 -5 -8 -3 -9 6 -4 9 5 11 4 6 -4 -15 -23 -23 0 -22 59 1 34 -2
66 -6 73 -4 6 -2 17 4 24 6 7 9 13 7 14 -42 8 -49 8 -44 -2 4 -6 -2 -5 -14 3
-20 12 -37 39 -23 37 20 -3 25 2 12 12 -12 8 -11 9 6 5 13 -4 21 -2 21 7 0 7
-10 13 -21 13 -18 -1 -21 5 -23 44 -1 25 -4 54 -6 65 -2 11 0 23 6 26 5 4 0
12 -12 18 -15 8 -21 9 -21 1 0 -7 -5 -8 -12 -3 -7 4 -17 8 -23 8 -5 0 -11 14
-12 30 0 17 -2 37 -2 45 -1 11 -12 15 -38 15 -31 0 -37 3 -39 25 -4 40 5 60
24 54 14 -5 14 -4 2 4 -8 6 -17 9 -21 6 -4 -2 -10 0 -14 6 -3 5 -2 10 2 10 5
0 9 11 9 25 0 14 -3 25 -6 25 -9 0 -6 32 3 47 9 15 -9 26 -45 28 -21 1 -25 -1
-17 -11 7 -8 7 -14 -1 -19 -6 -4 -10 -3 -9 2 1 4 -1 15 -4 23 -3 8 -8 31 -9
50 -3 33 -5 35 -37 35 -38 0 -54 24 -40 62 5 13 4 25 -2 28 -5 4 -6 11 -3 17
4 7 2 8 -4 4 -16 -9 -15 7 0 22 7 7 10 12 8 13 -3 0 -12 2 -22 4 -13 2 -15 -3
-12 -23 3 -14 13 -32 22 -39 15 -13 15 -13 -4 -4 -15 7 -25 7 -34 -2 -10 -10
-11 -9 -5 2 6 10 4 13 -6 9 -10 -4 -14 2 -14 18 0 13 6 24 13 24 6 0 12 4 12
10 0 5 -3 9 -7 9 -5 -1 -15 -1 -23 0 -13 1 -13 2 0 11 11 7 3 9 -27 5 -30 -3
-43 -1 -47 10 -3 9 0 15 9 15 8 0 15 5 15 11 0 6 -7 8 -17 4 -14 -5 -15 -4 -6
6 9 9 16 9 26 1 9 -8 17 -8 24 -1 6 6 10 5 10 -5 0 -8 -4 -13 -8 -11 -4 3 -9
-2 -13 -10 -6 -16 2 -19 19 -7 16 11 16 50 -1 56 -8 3 -14 -1 -14 -10 0 -8 -5
-12 -10 -9 -6 4 -8 10 -5 15 3 4 -4 6 -16 3 -18 -5 -21 -2 -19 28 3 54 1 62
-15 55 -8 -3 -15 -1 -15 4 0 6 -9 6 -24 0 -21 -8 -24 -6 -21 11 2 10 -1 19 -8
19 -8 0 -8 3 0 11 6 6 9 18 6 28 -3 13 -13 16 -43 13 l-38 -4 2 41 c2 30 -1
41 -11 41 -9 0 -11 5 -7 13 4 6 4 9 -1 5 -4 -4 -14 0 -22 10 -13 15 -13 15 -4
-5 15 -31 14 -33 -11 -24 -14 5 -23 17 -23 33 -2 38 -14 49 -48 46 -31 -3 -32
-2 -32 35 0 38 -26 69 -39 48 -3 -5 -14 -7 -25 -4 -14 3 -18 13 -17 36 2 40
-18 64 -39 47 -12 -10 -15 -10 -15 1 0 12 -2 12 -9 1 -7 -11 -9 -11 -14 1 -3
8 -1 19 5 25 8 8 7 13 -6 18 -13 5 -14 9 -5 20 9 11 5 14 -22 15 -19 1 -40 1
-48 -1 -10 -1 -12 9 -9 38 2 22 0 38 -4 36 -5 -3 -8 0 -8 7 0 8 -4 8 -16 -2
-13 -10 -17 -10 -25 2 -7 12 -9 12 -9 -1 0 -11 -2 -12 -8 -3 -4 7 -7 25 -6 40
1 33 -16 55 -32 42 -13 -11 -36 -8 -45 4 -3 5 -5 24 -4 43 1 35 -9 41 -68 35
-14 -2 -17 5 -14 38 3 34 0 41 -14 41 -10 0 -21 5 -24 10 -3 6 -12 10 -18 9
-9 0 -9 -2 1 -6 17 -7 15 -22 -3 -19 -9 1 -15 4 -15 7 1 2 -3 16 -9 30 -7 19
-6 30 2 38 8 8 6 11 -8 12 -11 1 -24 0 -30 -1 -5 -1 -17 -2 -25 -1 -8 0 -33 2
-54 3 -23 2 -41 9 -44 17 -3 10 0 11 9 5 11 -6 12 -5 2 8 -7 8 -10 18 -7 21 4
4 -1 18 -10 32 -9 14 -12 25 -6 25 14 0 6 43 -9 46 -7 2 -7 0 -1 -3 8 -3 7 -9
-1 -19 -16 -19 -28 -18 -24 4 1 9 0 11 -2 4 -3 -7 -9 -10 -14 -6 -5 3 -7 9 -5
12 2 4 -18 7 -45 6 -31 -1 -49 2 -50 9 -1 7 -2 26 -3 42 l-1 30 -77 0 -78 0 0
41 c0 40 -1 41 -36 42 -44 2 -43 0 -48 42 -3 29 -7 35 -27 35 -13 0 -30 -7
-37 -15 -10 -13 -11 -13 -6 2 5 14 -1 16 -41 14 l-47 -2 5 38 c3 21 2 39 -1
39 -4 1 -43 3 -87 5 -101 5 -105 6 -99 16 3 5 9 6 14 3 5 -3 8 8 7 25 -2 30
-9 34 -56 30 -13 -1 -21 2 -17 8 9 15 -34 26 -47 13 -6 -6 -16 -11 -21 -11 -6
0 0 7 12 16 13 9 29 13 36 11 10 -4 13 3 12 22 -1 27 -1 27 -73 27 -39 0 -67
-3 -61 -7 7 -4 7 -9 0 -13 -6 -3 -13 2 -16 11 -5 16 -20 18 -167 16 l-161 -3
6 23 c3 12 3 32 0 44 -5 18 -10 19 -39 13 -37 -8 -43 -2 -41 42 2 32 -2 34
-74 33 -30 0 -58 4 -62 9 -4 6 -12 5 -21 -2 -7 -7 -17 -9 -21 -5 -12 12 -40
12 -48 0 -6 -9 -8 -9 -8 0 0 7 -15 10 -40 8 -37 -3 -68 14 -41 23 9 3 9 7 1
17 -8 10 -8 15 1 21 7 4 10 3 6 -2 -3 -5 8 -10 24 -10 16 -1 29 3 29 10 0 6 4
4 10 -4 5 -9 5 -19 -2 -27 -6 -8 -8 -16 -5 -20 4 -3 9 2 13 11 4 10 13 15 24
11 12 -4 24 2 35 17 10 13 15 16 12 7 -6 -17 10 -39 27 -39 6 0 5 4 -3 9 -9 6
-10 11 -2 15 6 4 11 2 11 -3 0 -6 3 -10 8 -10 27 5 35 -2 16 -16 -18 -13 -18
-14 4 -8 17 4 21 10 16 22 -3 9 -7 22 -7 29 0 6 -7 12 -15 12 -12 0 -12 -2 -1
-17 13 -15 12 -15 -8 -4 -13 6 -23 8 -23 4 0 -4 -5 -1 -10 7 -7 11 -33 15
-107 17 -54 1 -102 3 -108 3 -5 0 -23 -1 -40 -3 -16 -1 -42 1 -57 5 -15 3 -30
2 -34 -3 -3 -5 -11 -6 -17 -2 -7 4 -20 6 -29 5 -14 -3 -16 3 -13 32 3 20 2 37
-3 37 -21 4 -2074 3 -2078 0z m2445 -97 c-6 -7 -17 -10 -25 -7 -22 8 -16 19
11 19 18 0 22 -3 14 -12z m646 -234 c-3 -5 -1 -10 4 -10 6 0 11 -5 11 -11 0
-8 -6 -7 -17 2 -14 12 -16 12 -11 -1 2 -8 13 -15 24 -15 14 0 18 6 16 25 -3
24 -2 24 14 5 15 -19 15 -19 10 -1 -6 16 -4 17 9 6 14 -11 12 -15 -17 -33 -25
-15 -36 -17 -50 -8 -28 17 -33 13 -12 -11 12 -14 13 -18 3 -10 -9 6 -18 10
-21 7 -2 -3 -5 3 -5 12 0 10 10 25 21 35 24 20 30 22 21 8z m-4077 -119 c-7
-9 -14 -18 -16 -21 -3 -3 -1 6 3 19 5 18 4 22 -5 16 -8 -5 -11 -4 -6 3 4 6 13
9 22 5 12 -4 12 -8 2 -22z m4232 14 c0 -2 -9 -9 -20 -15 -12 -6 -20 -7 -20 -1
0 5 8 12 18 14 9 3 18 5 20 6 1 0 2 -1 2 -4z m291 -172 c-12 -20 -14 -14 -5
12 4 9 9 14 11 11 3 -2 0 -13 -6 -23z m-66 -3 c-3 -5 -12 -10 -18 -10 -7 0 -6
4 3 10 19 12 23 12 15 0z m109 -19 c-4 -3 -9 0 -11 7 -3 6 -10 9 -15 6 -7 -4
-8 -2 -4 5 6 9 11 9 22 0 8 -6 12 -15 8 -18z m-4553 -10 c-6 -10 -7 -21 -3
-25 3 -4 -1 -4 -11 0 -9 3 -17 10 -17 16 0 5 4 7 9 4 5 -3 11 1 15 9 3 8 8 15
11 15 3 0 1 -8 -4 -19z m-43 -36 c-3 -3 -9 2 -12 12 -6 14 -5 15 5 6 7 -7 10
-15 7 -18z m92 -49 c0 -2 -7 -7 -16 -10 -8 -3 -12 -2 -9 4 6 10 25 14 25 6z
m4702 -5 c-11 -7 -10 -10 3 -15 23 -8 25 -8 21 7 -1 6 -1 8 2 3 2 -4 8 -2 13
5 6 9 9 10 9 2 0 -6 -4 -15 -10 -18 -5 -3 -10 -11 -10 -16 0 -6 5 -7 11 -4 6
4 5 -2 -3 -14 -10 -17 -14 -18 -21 -6 -4 8 -14 12 -22 9 -8 -4 -15 -1 -15 6 0
6 4 9 9 5 5 -3 12 -1 15 4 3 5 -1 12 -10 15 -17 6 -10 26 9 26 8 0 8 -3 -1 -9z
m168 -118 c0 -12 4 -11 18 4 9 10 14 14 10 9 -4 -5 -2 -16 5 -25 10 -12 9 -14
-5 -8 -11 4 -18 2 -18 -6 0 -8 -3 -8 -9 2 -5 7 -14 10 -20 7 -15 -10 -14 7 2
23 10 10 9 11 -4 6 -10 -4 -20 -2 -24 4 -4 7 0 8 11 4 13 -5 15 -3 9 8 -8 12
-6 12 8 0 9 -7 17 -20 17 -28z m-47 -13 c10 -12 9 -12 -3 -3 -8 5 -25 9 -37 8
-12 -1 -20 2 -17 7 7 11 42 4 57 -12z m-5437 -625 c1 -8 -1 -17 -5 -19 -4 -3
-7 6 -7 19 0 25 8 25 12 0z m-153 -166 c-8 -8 -13 -7 -18 2 -5 8 -4 10 3 5 7
-4 12 -2 12 5 0 7 3 9 7 6 4 -4 2 -12 -4 -18z m-90 -67 c15 -16 15 -19 2 -19
-8 0 -13 3 -10 5 3 3 0 11 -6 19 -17 20 -5 16 14 -5z m-33 -16 c0 -3 -4 -8
-10 -11 -5 -3 -10 -1 -10 4 0 6 5 11 10 11 6 0 10 -2 10 -4z m-854 -38 c-10
-6 -22 -6 -26 -2 -5 5 3 10 18 11 22 1 24 0 8 -9z m-28 -33 c-3 -3 -9 2 -12
12 -6 14 -5 15 5 6 7 -7 10 -15 7 -18z m30 0 c-6 -14 -15 -25 -20 -25 -5 0 -1
11 8 25 9 14 18 25 20 25 2 0 -2 -11 -8 -25z m713 -68 c-10 -9 -11 -8 -5 6 3
10 9 15 12 12 3 -3 0 -11 -7 -18z m29 -15 c0 -5 -7 -9 -15 -9 -8 0 -12 4 -9 9
3 4 9 8 15 8 5 0 9 -4 9 -8z m-896 -60 c-12 -4 -20 -14 -19 -23 2 -12 -3 -15
-18 -11 -20 5 -20 6 -1 13 10 4 15 8 11 8 -19 2 6 21 26 20 22 -1 22 -1 1 -7z
m13 -27 c0 -8 -4 -12 -9 -9 -5 3 -6 10 -3 15 9 13 12 11 12 -6z m798 5 c3 -6
-1 -7 -9 -4 -18 7 -21 14 -7 14 6 0 13 -4 16 -10z m-159 -132 c5 -7 2 -9 -9
-5 -23 9 -43 -19 -27 -38 7 -8 9 -15 5 -15 -4 0 -2 -7 5 -15 11 -13 10 -14 -4
-9 -10 4 -15 13 -12 20 3 7 -3 18 -12 24 -13 9 -14 12 -3 17 11 5 11 7 0 15
-11 8 -10 9 3 4 10 -3 20 -1 23 4 8 13 22 12 31 -2z m-731 -20 c-9 -6 -19 -7
-22 -4 -4 3 -1 6 6 6 7 0 9 4 6 10 -4 6 1 7 11 3 15 -6 15 -7 -1 -15z m-84
-55 c13 -16 12 -17 -3 -4 -17 13 -22 21 -14 21 2 0 10 -8 17 -17z m-99 -102
c16 -18 15 -20 -1 -18 -9 0 -17 9 -17 19 0 10 1 18 1 18 0 0 8 -9 17 -19z
m8411 -12 c-8 -8 -13 -7 -18 2 -6 8 -4 10 5 4 10 -6 12 -4 6 11 -6 15 -5 17 5
7 9 -10 10 -16 2 -24z m-8376 15 c-3 -3 -12 -4 -19 -1 -8 3 -5 6 6 6 11 1 17
-2 13 -5z m-162 -294 c3 -5 1 -10 -4 -10 -6 0 -11 5 -11 10 0 6 2 10 4 10 3 0
8 -4 11 -10z m8700 -2 c5 4 5 1 1 -5 -4 -8 -2 -13 6 -14 10 0 10 -2 1 -6 -7
-2 -13 -9 -13 -14 0 -6 5 -7 12 -3 7 4 8 3 4 -5 -10 -16 -29 -2 -22 16 4 10 2
13 -8 10 -11 -4 -13 -1 -9 10 5 12 3 14 -7 8 -9 -5 -11 -4 -6 4 6 8 12 9 20 2
7 -6 17 -7 21 -3z m-30 -48 l20 -25 -22 19 c-13 11 -23 24 -23 29 0 6 1 8 3 6
1 -2 11 -15 22 -29z m-8845 -350 c0 25 13 1 16 -32 3 -22 1 -28 -5 -19 -5 8
-6 21 -3 30 5 14 3 14 -11 3 -9 -8 -22 -10 -28 -6 -7 4 -9 3 -6 -2 3 -6 2 -16
-2 -23 -6 -9 -8 -4 -8 13 0 15 5 26 13 26 8 0 14 4 14 10 0 5 -8 7 -17 4 -15
-5 -16 -4 -3 5 11 8 18 7 28 -6 8 -12 12 -13 12 -3z m9031 -5 c5 4 6 -2 2 -11
-5 -13 -3 -15 7 -9 10 6 10 4 2 -11 -6 -12 -23 -19 -43 -20 l-33 -2 27 14 c15
8 27 19 27 25 0 6 -7 6 -20 -1 -14 -7 -20 -7 -20 0 0 5 7 10 15 10 8 0 15 6
16 13 0 9 2 9 6 -1 2 -6 9 -10 14 -7z m-9037 -43 c3 -5 -1 -9 -9 -9 -8 0 -12
4 -9 9 3 4 7 8 9 8 2 0 6 -4 9 -8z m-131 -285 c-4 -7 -6 -20 -5 -29 2 -10 -2
-18 -8 -18 -6 0 -9 4 -6 9 3 5 -1 15 -10 22 -14 12 -14 14 2 26 19 14 38 7 27
-10z m-58 -7 c3 -5 1 -10 -4 -10 -6 0 -11 5 -11 10 0 6 2 10 4 10 3 0 8 -4 11
-10z m-74 -437 c13 -16 12 -17 -3 -4 -17 13 -22 21 -14 21 2 0 10 -8 17 -17z
m121 -2441 c19 -14 16 -32 -5 -32 -7 0 -7 4 2 9 12 8 10 12 -11 22 -18 8 -24
17 -20 27 5 13 6 14 10 1 3 -7 14 -20 24 -27z m-33 -23 c-15 -9 -32 -2 -24 11
3 5 13 6 21 3 12 -4 13 -8 3 -14z m111 -199 c0 -5 -2 -10 -4 -10 -3 0 -8 5
-11 10 -3 6 -1 10 4 10 6 0 11 -4 11 -10z m88 -160 c-14 -22 -29 -22 -36 0 -3
9 1 11 11 7 9 -3 19 -2 22 3 4 6 8 10 11 10 2 0 -1 -9 -8 -20z m132 -374 c0
-2 -8 -10 -17 -17 -16 -13 -17 -12 -4 4 13 16 21 21 21 13z m17 -23 c0 -18
-35 -53 -52 -52 -5 0 -4 3 3 6 6 2 12 9 12 14 0 6 -5 7 -12 3 -7 -4 -8 -3 -4
4 4 6 14 8 24 5 9 -3 14 -3 10 2 -4 4 -3 14 3 22 15 17 16 17 16 -4z m8687 -4
c-3 -5 -1 -9 5 -9 5 0 12 6 14 13 4 9 6 9 6 0 1 -6 -3 -14 -8 -17 -14 -9 -38
3 -38 18 0 8 6 12 14 9 7 -3 10 -9 7 -14z m-99 -69 c-3 -5 -2 -10 4 -10 5 0
11 6 13 12 3 8 10 3 18 -12 14 -24 21 -50 15 -50 -10 0 -63 58 -58 64 10 9 15
7 8 -4z m-8450 -99 c-3 -6 -11 -11 -16 -11 -5 0 -4 6 3 14 14 16 24 13 13 -3z
m-8 -35 c0 -8 -6 -12 -15 -9 -11 5 -11 7 0 14 7 5 13 9 14 9 0 0 1 -6 1 -14z
m8413 -52 c0 -8 -19 -13 -24 -6 -3 5 1 9 9 9 8 0 15 -2 15 -3z m-60 -264 c0
-4 -7 -7 -15 -6 -23 3 -26 12 -5 13 11 1 20 -2 20 -7z m-163 -131 c-1 -10 -5
-19 -10 -19 -4 0 -6 -4 -3 -9 9 -13 -19 -7 -37 8 -19 15 -12 38 11 44 27 5 41
-3 39 -24z m-7367 -225 c0 -8 -19 -13 -24 -6 -3 5 1 9 9 9 8 0 15 -2 15 -3z
m-35 -14 c3 -5 1 -10 -4 -10 -6 0 -11 5 -11 10 0 6 2 10 4 10 3 0 8 -4 11 -10z
m-22 -23 c4 3 7 1 7 -5 0 -17 -16 -15 -31 6 -12 15 -12 16 2 5 9 -7 19 -10 22
-6z m453 -202 c-3 -8 4 -21 16 -29 12 -9 19 -18 15 -22 -6 -6 -20 5 -47 40 -9
12 -10 17 -2 12 6 -4 12 -2 12 3 0 6 3 11 6 11 3 0 4 -7 0 -15z m76 1 c7 4 8
2 4 -4 -4 -7 -3 -12 2 -12 15 0 24 -32 12 -44 -8 -8 -9 -6 -5 6 4 11 -1 21
-14 30 -12 7 -21 20 -20 28 0 10 2 11 6 2 2 -6 10 -9 15 -6z m44 -1 c-3 -8 -2
-15 2 -15 4 0 13 -9 20 -20 11 -19 11 -19 -6 -9 -11 7 -25 21 -31 32 -7 11 -8
16 -2 12 6 -3 11 -1 11 4 0 6 3 11 6 11 3 0 4 -7 0 -15z m73 -8 c12 -15 12
-17 -3 -11 -9 3 -16 13 -16 22 0 8 1 13 3 11 1 -2 9 -12 16 -22z m26 5 c-3 -3
-11 0 -18 7 -9 10 -8 11 6 5 10 -3 15 -9 12 -12z m-181 -3 c-2 -4 6 -15 18
-23 12 -9 19 -18 16 -21 -5 -5 -58 40 -58 49 0 1 7 3 15 3 8 0 12 -4 9 -8z
m120 0 c-2 -4 6 -15 18 -23 12 -9 19 -18 15 -22 -6 -6 -19 5 -44 37 -10 13
-10 16 2 16 8 0 12 -4 9 -8z m75 -16 c-13 -16 -25 -30 -26 -32 -2 -2 -3 0 -3
5 0 14 33 54 44 54 5 0 -1 -12 -15 -27z m181 -67 c-4 -4 -16 -4 -26 2 -16 9
-14 10 8 9 15 -1 23 -6 18 -11z m241 -96 c-4 -3 -11 -12 -14 -20 -4 -9 -6 -7
-4 7 1 12 -7 29 -18 38 -16 13 -13 13 12 -1 18 -10 29 -21 24 -24z m154 -49
c3 -5 2 -12 -3 -15 -5 -3 -9 1 -9 9 0 17 3 19 12 6z m82 -101 c-2 -11 -6 -22
-9 -26 -4 -3 -5 2 -3 13 2 10 4 21 4 26 1 4 3 7 6 7 3 0 4 -9 2 -20z m-41 -16
c1 -9 0 -13 -4 -10 -3 4 -7 14 -8 22 -1 9 0 13 4 10 3 -4 7 -14 8 -22z m368
-135 c-8 -13 -21 -11 -27 5 -4 10 0 12 14 9 10 -3 16 -9 13 -14z m56 1 c0 -5
-5 -10 -11 -10 -5 0 -7 5 -4 10 3 6 8 10 11 10 2 0 4 -4 4 -10z m-102 -45 c-3
-3 -9 2 -12 12 -6 14 -5 15 5 6 7 -7 10 -15 7 -18z m4679 -110 c0 -8 -4 -15
-9 -15 -4 0 -7 -3 -7 -7 3 -21 -2 -33 -12 -27 -8 4 -7 9 2 15 11 7 11 9 1 9
-10 0 -10 4 0 20 15 24 25 26 25 5z m-4185 -13 c11 -15 11 -15 -3 -5 -8 7 -25
11 -38 8 -12 -2 -20 -1 -17 3 9 15 45 10 58 -6z m28 8 c0 -5 -2 -10 -4 -10 -3
0 -8 5 -11 10 -3 6 -1 10 4 10 6 0 11 -4 11 -10z m3997 -92 c3 -22 3 -22 -14
-6 -16 17 -18 17 -38 -2 -17 -16 -22 -17 -22 -6 0 9 7 18 14 20 8 3 12 10 9
15 -3 5 4 7 16 3 16 -4 19 -2 13 9 -6 11 -5 12 5 2 8 -7 15 -23 17 -35z m-117
12 c0 -5 -5 -10 -11 -10 -5 0 -7 5 -4 10 3 6 8 10 11 10 2 0 4 -4 4 -10z m84
-34 c-6 -16 -24 -23 -24 -8 0 10 22 33 27 28 2 -2 1 -11 -3 -20z m-3480 -47
c-8 -14 -24 -10 -24 6 0 9 6 12 15 9 8 -4 12 -10 9 -15z m449 -114 c-14 -29
-19 -32 -26 -20 -6 11 -2 21 15 35 13 11 24 19 25 20 2 0 -5 -16 -14 -35z
m2731 19 c6 2 7 1 3 -2 -4 -2 -3 -10 2 -16 8 -9 7 -13 -4 -13 -8 0 -12 4 -10
8 3 4 -2 9 -10 13 -8 3 -17 0 -21 -6 -5 -7 -2 -8 6 -3 9 6 11 4 6 -4 -9 -13
-21 -6 -21 12 -1 17 18 28 29 17 4 -4 14 -7 20 -6z m-190 -102 c3 -5 -1 -9 -9
-9 -8 0 -15 4 -15 9 0 4 4 8 9 8 6 0 12 -4 15 -8z m-54 -44 c0 -11 -12 -10
-30 2 -12 7 -10 9 8 7 12 0 22 -5 22 -9z m-316 -79 c-3 -5 0 -9 5 -9 6 0 11 5
11 11 0 5 5 7 10 4 6 -3 10 -2 10 3 0 12 38 8 52 -6 9 -9 9 -12 0 -12 -7 0
-12 6 -13 13 0 9 -2 9 -6 -1 -2 -6 -10 -9 -15 -6 -7 4 -8 2 -4 -5 4 -6 11 -9
15 -7 16 10 29 -9 15 -22 -8 -7 -14 -8 -14 -3 0 18 -40 34 -54 22 -10 -8 -16
-5 -24 14 -9 20 -9 23 3 18 8 -3 12 -9 9 -14z m-579 -279 c3 -6 -1 -7 -9 -4
-18 7 -21 14 -7 14 6 0 13 -4 16 -10z m40 0 c3 -6 -1 -7 -9 -4 -18 7 -21 14
-7 14 6 0 13 -4 16 -10z"/>
<path d="M9535 6760 c-3 -5 -1 -10 4 -10 6 0 11 5 11 10 0 6 -2 10 -4 10 -3 0
-8 -4 -11 -10z"/>
<path d="M360 6470 c-9 -6 -10 -10 -3 -10 6 0 15 5 18 10 8 12 4 12 -15 0z"/>
<path d="M9290 2716 c0 -2 8 -10 18 -17 15 -13 16 -12 3 4 -13 16 -21 21 -21
13z"/>
<path d="M8966 2157 c-16 -12 -16 -14 -3 -26 13 -10 17 -9 26 8 14 24 0 35
-23 18z"/>
<path d="M6079 9753 c-13 -16 -12 -17 4 -4 9 7 17 15 17 17 0 8 -8 3 -21 -13z"/>
<path d="M6120 9720 c-9 -6 -10 -10 -3 -10 6 0 15 5 18 10 8 12 4 12 -15 0z"/>
<path d="M3608 9689 c-6 -4 -15 -6 -19 -3 -12 7 -4 -25 9 -38 7 -7 12 -8 12
-4 0 5 8 2 17 -5 11 -10 14 -10 9 -1 -4 6 -2 12 3 12 6 0 11 -6 11 -12 0 -9 3
-8 9 2 6 8 7 18 4 24 -3 5 -2 6 3 3 5 -3 10 3 10 14 0 19 -1 18 -18 -3 -17
-22 -17 -22 -14 -2 4 21 -12 27 -36 13z m26 -23 c-3 -8 -13 -13 -22 -11 -9 2
-19 4 -21 4 -3 1 4 7 14 15 22 16 37 12 29 -8z"/>
<path d="M3689 9689 c-1 -5 -2 -13 -3 -18 0 -5 -4 -13 -8 -17 -12 -11 -9 -23
5 -20 25 6 47 18 47 28 0 5 -4 7 -8 4 -4 -2 -14 0 -22 6 -12 8 -12 9 3 4 10
-3 17 0 17 7 0 8 4 7 10 -3 5 -8 12 -11 16 -7 4 4 5 10 2 13 -10 10 -58 12
-59 3z"/>
<path d="M6245 9661 c3 -2 0 -10 -6 -18 -6 -7 -8 -13 -4 -13 4 0 14 8 21 18
13 16 14 16 7 -3 -6 -20 -6 -20 15 -1 12 11 22 20 22 20 0 1 -13 1 -30 1 -16
1 -27 -1 -25 -4z"/>
<path d="M3747 9643 c4 -11 8 -12 13 -3 6 9 9 9 13 1 4 -8 5 -8 3 0 -1 7 -9
13 -18 15 -11 1 -15 -3 -11 -13z"/>
<path d="M3800 9645 c-9 -10 -7 -13 7 -10 10 1 23 -2 30 -7 7 -5 14 -5 17 1
13 21 -37 36 -54 16z"/>
<path d="M6349 9643 c-7 -10 -9 -15 -5 -11 5 4 15 3 22 -3 7 -6 14 -6 18 -1 3
6 0 15 -8 21 -10 9 -17 7 -27 -6z"/>
<path d="M6715 9530 c3 -5 8 -10 11 -10 2 0 4 5 4 10 0 6 -5 10 -11 10 -5 0
-7 -4 -4 -10z"/>
<path d="M6789 9523 c-13 -16 -12 -17 4 -4 9 7 17 15 17 17 0 8 -8 3 -21 -13z"/>
<path d="M3187 9519 c7 -7 15 -10 18 -7 3 3 -2 9 -12 12 -14 6 -15 5 -6 -5z"/>
<path d="M3314 9505 c2 -35 11 -39 12 -4 1 16 -2 29 -6 29 -4 0 -6 -11 -6 -25z"/>
<path d="M6751 9507 c-13 -21 -12 -21 5 -5 10 10 16 20 13 22 -3 3 -11 -5 -18
-17z"/>
<path d="M3279 9493 c-13 -16 -12 -17 4 -4 16 13 21 21 13 21 -2 0 -10 -8 -17
-17z"/>
<path d="M6675 9502 c3 -3 -1 -12 -7 -21 -8 -10 -4 -9 10 3 26 23 26 23 7 23
-8 0 -13 -3 -10 -5z"/>
<path d="M6771 9487 c-8 -10 -7 -14 2 -14 8 0 14 6 14 14 0 7 -1 13 -2 13 -2
0 -8 -6 -14 -13z"/>
<path d="M6835 9490 c-4 -6 -11 -7 -17 -4 -7 4 -8 2 -4 -5 6 -9 11 -9 22 0 14
11 18 19 10 19 -3 0 -8 -5 -11 -10z"/>
<path d="M3062 9404 c10 -10 20 -16 22 -13 3 3 -5 11 -17 18 -21 13 -21 12 -5
-5z"/>
<path d="M2815 9281 c3 -5 -4 -13 -16 -16 -11 -4 -18 -9 -16 -12 8 -7 47 16
47 27 0 6 -5 10 -11 10 -5 0 -8 -4 -4 -9z"/>
<path d="M2835 9259 c-4 -6 -5 -12 -2 -15 2 -3 7 2 10 11 7 17 1 20 -8 4z"/>
<path d="M2810 9241 c0 -7 -5 -9 -12 -5 -7 5 -8 3 -3 -5 5 -9 10 -10 18 -2 6
6 8 14 4 18 -4 3 -7 1 -7 -6z"/>
<path d="M7350 9245 c0 -7 30 -13 34 -7 3 4 -4 9 -15 9 -10 1 -19 0 -19 -2z"/>
<path d="M7976 8888 c5 -7 2 -9 -8 -6 -8 4 -15 0 -15 -7 0 -10 5 -11 19 -4 16
9 17 29 2 29 -3 0 -2 -5 2 -12z"/>
<path d="M7921 8874 c0 -11 3 -14 6 -6 3 7 2 16 -1 19 -3 4 -6 -2 -5 -13z"/>
<path d="M7930 8840 c0 -5 5 -10 10 -10 6 0 10 5 10 10 0 6 -4 10 -10 10 -5 0
-10 -4 -10 -10z"/>
<path d="M8060 8797 c0 -2 6 -10 14 -16 11 -9 16 -9 22 1 4 7 4 10 -1 6 -4 -4
-14 -3 -22 3 -7 6 -13 9 -13 6z"/>
<path d="M8113 8773 c0 -9 4 -10 14 -2 7 6 13 12 13 14 0 1 -6 2 -13 2 -8 0
-14 -6 -14 -14z"/>
<path d="M8270 8621 c0 -6 4 -13 10 -16 6 -3 7 1 4 9 -7 18 -14 21 -14 7z"/>
<path d="M2650 8560 c0 -5 5 -10 10 -10 6 0 10 5 10 10 0 6 -4 10 -10 10 -5 0
-10 -4 -10 -10z"/>
<path d="M8340 8546 c0 -2 8 -10 18 -17 15 -13 16 -12 3 4 -13 16 -21 21 -21
13z"/>
<path d="M2406 8358 c3 -4 9 -8 15 -8 5 0 9 4 9 8 0 5 -7 9 -15 9 -8 0 -12 -4
-9 -9z"/>
<path d="M8734 8158 c-4 -7 -4 -10 1 -6 4 4 15 2 24 -5 14 -11 14 -10 2 6 -16
20 -18 21 -27 5z"/>
<path d="M8833 8085 c0 -8 4 -12 9 -9 5 3 6 10 3 15 -9 13 -12 11 -12 -6z"/>
<path d="M8811 8074 c0 -11 3 -14 6 -6 3 7 2 16 -1 19 -3 4 -6 -2 -5 -13z"/>
<path d="M8835 8050 c-4 -6 -11 -7 -17 -4 -7 4 -8 2 -4 -5 6 -9 11 -9 22 0 14
11 18 19 10 19 -3 0 -8 -5 -11 -10z"/>
<path d="M1035 7929 c-4 -6 -5 -12 -2 -15 2 -3 7 2 10 11 7 17 1 20 -8 4z"/>
<path d="M1076 7914 c-8 -20 -8 -24 2 -24 4 0 8 9 9 20 2 24 -3 26 -11 4z"/>
<path d="M1270 7881 c0 -6 4 -13 10 -16 6 -3 7 1 4 9 -7 18 -14 21 -14 7z"/>
<path d="M1056 7867 c3 -10 9 -15 12 -12 3 3 0 11 -7 18 -10 9 -11 8 -5 -6z"/>
<path d="M1306 7857 c3 -10 9 -15 12 -12 3 3 0 11 -7 18 -10 9 -11 8 -5 -6z"/>
<path d="M1316 7798 c3 -5 10 -6 15 -3 13 9 11 12 -6 12 -8 0 -12 -4 -9 -9z"/>
<path d="M1270 7759 c0 -5 5 -7 10 -4 6 3 10 8 10 11 0 2 -4 4 -10 4 -5 0 -10
-5 -10 -11z"/>
<path d="M9040 7731 c0 -6 4 -13 10 -16 6 -3 7 1 4 9 -7 18 -14 21 -14 7z"/>
<path d="M1301 7714 c0 -11 3 -14 6 -6 3 7 2 16 -1 19 -3 4 -6 -2 -5 -13z"/>
<path d="M1296 7673 c-6 -14 -5 -15 5 -6 7 7 10 15 7 18 -3 3 -9 -2 -12 -12z"/>
<path d="M1719 7553 c-13 -16 -12 -17 4 -4 9 7 17 15 17 17 0 8 -8 3 -21 -13z"/>
<path d="M1589 7454 c-14 -17 -22 -64 -11 -64 18 0 69 40 69 54 0 9 -2 14 -5
11 -3 -2 -13 0 -22 5 -13 7 -22 5 -31 -6z m39 -18 c-2 -1 -14 -10 -28 -21
l-25 -20 18 21 c9 11 17 24 17 29 0 4 -8 1 -17 -6 -16 -13 -17 -12 -4 4 11 13
17 15 28 6 7 -7 12 -12 11 -13z"/>
<path d="M9286 7441 c-14 -15 -15 -21 -4 -27 7 -4 10 -3 5 1 -4 5 0 17 10 27
9 10 14 18 11 18 -3 0 -13 -9 -22 -19z"/>
<path d="M9307 7427 c-3 -8 1 -14 8 -14 7 0 11 6 8 14 -3 7 -6 13 -8 13 -2 0
-5 -6 -8 -13z"/>
<path d="M757 7373 c-10 -9 -9 -23 1 -23 5 0 9 7 9 15 0 17 -1 18 -10 8z"/>
<path d="M9274 7358 c-4 -7 -4 -10 1 -6 4 4 15 2 24 -5 14 -11 14 -10 2 6 -16
20 -18 21 -27 5z"/>
<path d="M715 7298 c1 -15 -1 -28 -6 -28 -5 0 -9 -5 -9 -11 0 -5 4 -8 9 -4 6
3 14 -3 20 -12 8 -14 10 -15 11 -3 0 12 2 12 9 2 7 -11 9 -11 14 2 3 8 2 18
-4 22 -6 4 -5 12 3 22 8 10 8 13 1 9 -6 -4 -13 -4 -16 0 -2 5 -2 3 -1 -4 2 -7
-1 -15 -5 -18 -12 -7 -21 31 -10 42 6 6 4 10 -4 10 -10 0 -13 -10 -12 -29z
m41 -40 c3 -4 -1 -5 -10 -4 -8 1 -18 5 -22 8 -3 4 1 5 10 4 8 -1 18 -5 22 -8z"/>
<path d="M9310 7319 c0 -5 5 -7 10 -4 6 3 10 8 10 11 0 2 -4 4 -10 4 -5 0 -10
-5 -10 -11z"/>
<path d="M624 7201 c2 -9 9 -16 17 -16 20 0 18 28 -2 31 -11 1 -16 -4 -15 -15z"/>
<path d="M625 7160 c4 -6 11 -8 16 -5 14 9 11 15 -7 15 -8 0 -12 -5 -9 -10z"/>
<path d="M9480 7046 c0 -8 -9 -20 -20 -26 -12 -6 -18 -16 -13 -23 5 -8 8 -8
11 1 3 10 7 10 18 1 16 -13 15 -14 18 24 2 15 -1 30 -6 33 -4 3 -8 -2 -8 -10z
m7 -31 c0 -8 -4 -12 -9 -9 -5 3 -6 10 -3 15 9 13 12 11 12 -6z"/>
<path d="M416 6508 c3 -5 10 -6 15 -3 13 9 11 12 -6 12 -8 0 -12 -4 -9 -9z"/>
<path d="M9670 6439 c0 -5 5 -7 10 -4 6 3 10 8 10 11 0 2 -4 4 -10 4 -5 0 -10
-5 -10 -11z"/>
<path d="M246 6378 c3 -5 10 -6 15 -3 13 9 11 12 -6 12 -8 0 -12 -4 -9 -9z"/>
<path d="M249 3917 c6 -8 7 -18 3 -22 -4 -5 -1 -5 6 -1 10 6 10 11 1 22 -6 8
-14 14 -16 14 -3 0 0 -6 6 -13z"/>
<path d="M256 3861 c-3 -5 2 -15 12 -22 15 -12 16 -12 5 2 -7 9 -10 19 -6 22
3 4 4 7 0 7 -3 0 -8 -4 -11 -9z"/>
<path d="M234 3742 c4 -3 14 -7 22 -8 9 -1 13 0 10 4 -4 3 -14 7 -22 8 -9 1
-13 0 -10 -4z"/>
<path d="M9670 3680 c0 -4 6 -13 14 -19 12 -10 14 -29 6 -51 -1 -3 -2 -8 -1
-12 0 -5 -5 -8 -11 -8 -9 0 -8 -3 2 -9 19 -13 34 -3 20 14 -7 9 -6 16 5 25 11
9 12 16 5 25 -5 6 -7 15 -3 18 3 4 1 7 -6 7 -7 0 -10 4 -7 8 3 5 -1 9 -9 9 -8
0 -15 -4 -15 -7z"/>
<path d="M259 3668 c-5 -18 -6 -38 -1 -34 7 8 12 36 6 36 -2 0 -4 -1 -5 -2z"/>
<path d="M9520 3179 c-14 -8 -13 -10 11 -13 6 0 17 -14 25 -31 8 -16 12 -22 9
-12 -2 9 0 17 5 17 6 0 10 5 10 11 0 5 -4 8 -9 4 -5 -3 -16 3 -23 14 -10 14
-18 17 -28 10z"/>
<path d="M467 3079 c7 -7 15 -10 18 -7 3 3 -2 9 -12 12 -14 6 -15 5 -6 -5z"/>
<path d="M9555 3040 c-3 -5 -1 -10 4 -10 6 0 11 5 11 10 0 6 -2 10 -4 10 -3 0
-8 -4 -11 -10z"/>
<path d="M590 3000 c0 -5 5 -10 10 -10 6 0 10 5 10 10 0 6 -4 10 -10 10 -5 0
-10 -4 -10 -10z"/>
<path d="M9550 3006 c0 -2 7 -7 16 -10 8 -3 12 -2 9 4 -6 10 -25 14 -25 6z"/>
<path d="M717 2704 c-11 -14 -13 -25 -7 -29 6 -4 7 -12 4 -18 -4 -7 -3 -8 2
-4 5 5 10 13 10 18 3 23 5 23 18 0 l13 -24 11 32 c8 23 8 30 0 25 -6 -4 -16 0
-22 8 -10 13 -14 12 -29 -8z m43 -28 c0 -6 -5 -3 -11 7 -9 15 -13 16 -27 5
-15 -12 -16 -11 -3 5 10 13 17 15 27 6 8 -6 14 -17 14 -23z"/>
<path d="M9275 2591 c-3 -5 -2 -12 3 -15 5 -3 9 1 9 9 0 17 -3 19 -12 6z"/>
<path d="M829 2563 c-13 -16 -12 -17 4 -4 9 7 17 15 17 17 0 8 -8 3 -21 -13z"/>
<path d="M793 2555 c0 -8 4 -15 9 -15 4 0 8 4 8 9 0 6 -4 12 -8 15 -5 3 -9 -1
-9 -9z"/>
<path d="M824 2535 c-12 -8 -23 -12 -26 -10 -3 3 -5 -2 -5 -10 0 -13 3 -13 18
1 10 9 22 13 27 10 5 -3 9 1 9 9 0 18 2 18 -23 0z"/>
<path d="M828 2503 c7 -3 16 -2 19 1 4 3 -2 6 -13 5 -11 0 -14 -3 -6 -6z"/>
<path d="M952 2387 c-8 -10 -6 -13 11 -14 12 0 16 1 9 4 -6 3 -10 9 -6 14 8
14 -2 11 -14 -4z"/>
<path d="M986 2338 c3 -5 10 -6 15 -3 13 9 11 12 -6 12 -8 0 -12 -4 -9 -9z"/>
<path d="M9055 2231 c-15 -17 -15 -20 0 -35 21 -21 26 -20 18 2 -6 14 -4 15 8
5 13 -10 16 -10 16 1 0 10 -8 13 -25 10 -21 -4 -23 -3 -13 10 7 8 19 12 27 9
8 -3 14 -3 14 0 0 15 -30 13 -45 -2z"/>
<path d="M1294 2075 c1 -8 6 -18 11 -22 4 -4 5 -3 2 4 -4 6 -2 13 5 15 8 3 6
6 -4 10 -10 4 -15 2 -14 -7z"/>
<path d="M1273 2052 c0 -11 5 -18 9 -16 4 3 8 0 8 -7 0 -7 3 -10 6 -6 3 3 -1
16 -9 28 -16 22 -16 22 -14 1z"/>
<path d="M1473 1874 c0 -7 6 -10 14 -7 7 3 13 8 13 12 0 4 -6 8 -13 8 -8 0
-14 -6 -14 -13z"/>
<path d="M8840 1880 c-9 -6 -10 -10 -3 -10 6 0 15 5 18 10 8 12 4 12 -15 0z"/>
<path d="M1438 1863 c7 -3 16 -2 19 1 4 3 -2 6 -13 5 -11 0 -14 -3 -6 -6z"/>
<path d="M8756 1841 c-3 -5 2 -15 12 -22 15 -12 16 -12 5 2 -7 9 -10 19 -6 22
3 4 4 7 0 7 -3 0 -8 -4 -11 -9z"/>
<path d="M1934 1676 c5 -13 2 -17 -9 -12 -8 3 -15 1 -15 -4 0 -12 27 -13 34
-2 2 4 0 14 -6 22 -8 12 -9 11 -4 -4z"/>
<path d="M8613 1655 c-3 -9 -3 -18 -1 -21 3 -3 8 4 11 16 6 23 -1 27 -10 5z"/>
<path d="M2376 1553 c5 -5 12 -12 16 -18 4 -6 8 -2 8 8 0 9 -7 17 -17 17 -9 0
-12 -3 -7 -7z"/>
<path d="M2704 1415 c1 -30 4 -34 26 -33 42 1 59 8 54 22 -3 9 -18 12 -42 9
-23 -2 -32 0 -24 5 10 7 10 11 -1 21 -12 9 -14 5 -13 -24z"/>
<path d="M8359 1393 c-13 -16 -12 -17 4 -4 16 13 21 21 13 21 -2 0 -10 -8 -17
-17z"/>
<path d="M3052 1240 c0 -14 2 -19 5 -12 2 6 2 18 0 25 -3 6 -5 1 -5 -13z"/>
<path d="M7956 1102 c-3 -5 1 -9 9 -9 8 0 12 4 9 9 -3 4 -7 8 -9 8 -2 0 -6 -4
-9 -8z"/>
<path d="M7958 1073 c7 -3 16 -2 19 1 4 3 -2 6 -13 5 -11 0 -14 -3 -6 -6z"/>
<path d="M3516 1026 c10 -8 21 -12 24 -10 5 6 -21 24 -34 24 -6 0 -1 -6 10
-14z"/>
<path d="M3550 1005 c0 -8 4 -15 8 -15 5 0 9 7 9 15 0 8 -4 15 -9 15 -4 0 -8
-7 -8 -15z"/>
<path d="M3506 992 c-2 -4 4 -8 14 -8 10 0 16 4 14 8 -3 4 -9 8 -14 8 -5 0
-11 -4 -14 -8z"/>
<path d="M3826 954 c-11 -7 -18 -16 -15 -18 2 -2 13 2 23 10 11 7 18 16 15 18
-2 2 -13 -2 -23 -10z"/>
<path d="M3829 919 c-12 -10 -17 -19 -11 -19 6 0 14 5 17 11 5 6 12 4 21 -8 7
-10 14 -13 14 -7 0 5 -5 15 -12 22 -7 7 -8 12 -2 12 6 0 15 -5 20 -10 7 -7 11
-7 11 3 0 20 -33 18 -58 -4z"/>
<path d="M3756 913 c-6 -14 -5 -15 5 -6 7 7 10 15 7 18 -3 3 -9 -2 -12 -12z"/>
<path d="M7806 913 c-6 -14 -5 -15 5 -6 7 7 10 15 7 18 -3 3 -9 -2 -12 -12z"/>
<path d="M4156 875 c-3 -8 -1 -15 4 -15 6 0 10 7 10 15 0 8 -2 15 -4 15 -2 0
-6 -7 -10 -15z"/>
<path d="M4146 836 c3 -9 13 -16 22 -16 8 0 13 1 11 3 -2 1 -12 9 -22 16 -15
12 -17 12 -11 -3z"/>
<path d="M7226 712 c-9 -14 6 -52 19 -52 23 0 23 24 1 38 -19 11 -17 12 19 7
31 -3 35 -3 15 4 -33 12 -48 13 -54 3z"/>
<path d="M7317 709 c7 -7 15 -10 18 -7 3 3 -2 9 -12 12 -14 6 -15 5 -6 -5z"/>
<path d="M4669 688 c-1 -7 -1 -17 0 -22 1 -5 -5 -6 -13 -3 -8 3 -20 0 -26 -8
-10 -12 -8 -13 10 -10 14 3 20 0 17 -8 -2 -7 -11 -11 -21 -9 -9 2 -16 -2 -16
-8 0 -5 3 -9 8 -9 20 3 33 -2 27 -11 -4 -6 -10 -8 -15 -5 -5 3 -11 1 -15 -4
-3 -6 4 -8 16 -6 16 3 19 0 14 -13 -3 -9 -3 -13 1 -9 4 4 14 1 23 -6 14 -10
14 -10 4 4 -10 12 -10 18 0 28 9 10 8 11 -8 5 -18 -7 -19 -6 -5 11 9 11 10 16
3 11 -16 -9 -16 -5 -1 31 16 39 18 53 7 53 -5 0 -10 -6 -10 -12z"/>
<path d="M7296 675 c4 -8 8 -15 10 -15 2 0 4 7 4 15 0 8 -4 15 -10 15 -5 0 -7
-7 -4 -15z"/>
<path d="M4623 555 c0 -8 4 -12 9 -9 4 3 8 9 8 15 0 5 -4 9 -8 9 -5 0 -9 -7
-9 -15z"/>
<path d="M4638 536 c-10 -7 -18 -17 -18 -21 0 -4 7 -2 15 5 8 7 15 8 15 2 0
-5 -7 -15 -15 -22 -8 -7 -15 -17 -15 -23 0 -6 7 -1 16 12 13 18 18 20 25 10 5
-8 9 -18 9 -24 0 -5 -4 -4 -9 4 -5 8 -11 9 -15 3 -8 -13 17 -22 33 -12 10 5
10 9 2 15 -9 5 -9 10 0 21 10 12 9 13 -7 7 -16 -6 -17 -4 -7 9 22 26 0 36 -29
14z"/>
<path d="M6675 450 c10 -11 20 -20 23 -20 3 0 -3 9 -13 20 -10 11 -20 20 -23
20 -3 0 3 -9 13 -20z"/>
<path d="M4625 450 c-3 -4 -2 -15 1 -24 5 -13 9 -14 20 -5 8 6 14 15 14 19 0
12 -29 20 -35 10z m20 -10 c3 -5 1 -10 -4 -10 -6 0 -11 5 -11 10 0 6 2 10 4
10 3 0 8 -4 11 -10z"/>
<path d="M4670 440 c0 -6 -12 -22 -27 -36 -21 -19 -23 -23 -7 -19 19 7 19 6 0
-9 -11 -9 -17 -18 -14 -21 9 -9 39 25 32 36 -3 5 5 13 18 18 13 6 17 10 9 10
-11 1 -11 4 -1 16 9 10 9 15 1 15 -6 0 -11 -5 -11 -10z"/>
<path d="M4669 368 c-1 -7 -1 -17 0 -22 1 -5 -5 -6 -13 -3 -8 3 -20 0 -26 -8
-10 -12 -8 -13 10 -10 14 3 20 0 17 -8 -2 -7 -11 -11 -21 -9 -9 2 -16 -2 -16
-8 0 -5 3 -9 8 -9 20 3 33 -2 27 -11 -4 -6 -10 -8 -15 -5 -5 3 -11 1 -15 -4
-3 -6 4 -8 15 -6 14 3 20 0 17 -8 -2 -7 -13 -11 -23 -9 -18 3 -18 3 1 -13 17
-14 17 -16 3 -11 -10 3 -18 1 -18 -4 0 -6 8 -10 18 -10 13 0 14 -2 3 -9 -9 -6
-10 -11 -2 -15 10 -7 16 6 12 27 -1 5 9 6 21 2 18 -5 20 -4 8 4 -12 8 -12 11
-1 11 10 0 11 3 2 13 -8 10 -7 17 2 26 9 10 8 11 -8 5 -18 -7 -19 -6 -5 11 9
11 10 16 3 11 -16 -9 -16 -5 -1 31 16 39 18 53 7 53 -5 0 -10 -6 -10 -12z m1
-128 c0 -5 -5 -10 -11 -10 -5 0 -7 5 -4 10 3 6 8 10 11 10 2 0 4 -4 4 -10z"/>
<path d="M6323 313 c-15 -5 -17 -23 -4 -23 5 0 11 7 15 15 3 8 4 15 3 14 -1 0
-8 -3 -14 -6z"/>
<path d="M4886 218 c3 -5 10 -6 15 -3 13 9 11 12 -6 12 -8 0 -12 -4 -9 -9z"/>
<path d="M4994 222 c4 -3 14 -7 22 -8 9 -1 13 0 10 4 -4 3 -14 7 -22 8 -9 1
-13 0 -10 -4z"/>
<path d="M5055 220 c-3 -5 -1 -10 4 -10 6 0 11 5 11 10 0 6 -2 10 -4 10 -3 0
-8 -4 -11 -10z"/>
<path d="M5215 220 c-3 -5 -1 -10 4 -10 6 0 11 5 11 10 0 6 -2 10 -4 10 -3 0
-8 -4 -11 -10z"/>
<path d="M5455 220 c-3 -5 -1 -10 4 -10 6 0 11 5 11 10 0 6 -2 10 -4 10 -3 0
-8 -4 -11 -10z"/>
<path d="M5695 220 c-3 -5 -1 -10 4 -10 6 0 11 5 11 10 0 6 -2 10 -4 10 -3 0
-8 -4 -11 -10z"/>
<path d="M5855 220 c-3 -5 -1 -10 4 -10 6 0 11 5 11 10 0 6 -2 10 -4 10 -3 0
-8 -4 -11 -10z"/>
<path d="M6095 220 c-3 -5 -1 -10 4 -10 6 0 11 5 11 10 0 6 -2 10 -4 10 -3 0
-8 -4 -11 -10z"/>
</g>
</svg>
